<?xml version="1.0" standalone="no"?>
<!DOCTYPE svg PUBLIC "-//W3C//DTD SVG 20010904//EN"
 "http://www.w3.org/TR/2001/REC-SVG-20010904/DTD/svg10.dtd">
<svg version="1.0" xmlns="http://www.w3.org/2000/svg"
 width="260.000000pt" height="260.000000pt" viewBox="0 0 260.000000 260.000000"
 preserveAspectRatio="xMidYMid meet">
<metadata>
Created by potrace 1.14, written by Peter Selinger 2001-2017
</metadata>
<g transform="translate(0.000000,260.000000) scale(0.100000,-0.100000)"
fill="#000000" stroke="none">
<path d="M1267 2348 c-9 -24 -25 -67 -36 -95 l-21 -53 30 0 c23 0 31 5 36 26
4 17 11 23 21 20 8 -3 23 -6 32 -6 10 0 23 -12 29 -26 9 -18 19 -24 35 -22 27
4 26 13 -14 119 -30 77 -32 79 -64 79 -30 0 -35 -4 -48 -42z m62 -55 c1 -7 -8
-13 -18 -13 -17 0 -18 3 -8 30 10 26 13 28 19 13 3 -10 7 -24 7 -30z"/>
<path d="M1116 2371 c-10 -4 -29 -27 -41 -51 l-22 -43 -7 36 c-5 27 -12 37
-26 37 -30 0 -32 -15 -13 -105 17 -82 18 -86 43 -83 22 3 25 7 22 41 -2 20 -1
37 3 37 3 0 23 -12 42 -27 32 -25 67 -31 83 -16 3 2 -17 23 -44 47 l-49 42 27
42 c14 23 26 44 26 47 0 7 -21 5 -44 -4z"/>
<path d="M877 2308 c-16 -12 -16 -17 -2 -63 21 -72 20 -74 -28 -27 -47 46 -58
50 -77 27 -10 -12 -9 -27 3 -78 l16 -62 -41 48 c-41 48 -67 58 -86 34 -9 -10
4 -29 57 -81 65 -64 69 -67 94 -55 18 8 26 18 23 28 -13 45 -17 91 -8 91 5 0
24 -16 41 -35 27 -32 33 -34 56 -23 14 6 25 14 24 17 -5 49 -38 186 -45 188
-5 2 -18 -2 -27 -9z"/>
<path d="M1701 2218 c-48 -67 -51 -74 -35 -85 25 -18 26 -18 57 33 15 26 30
44 32 42 3 -2 1 -29 -4 -59 -5 -29 -7 -57 -4 -61 9 -17 38 -6 88 31 l52 40
-29 -55 c-24 -44 -28 -58 -18 -69 7 -8 18 -15 24 -15 10 0 45 68 84 161 2 4
-9 14 -25 22 -27 14 -29 13 -74 -24 -26 -21 -49 -39 -51 -39 -3 0 0 28 5 61 9
55 8 63 -8 75 -10 8 -24 14 -30 14 -7 0 -35 -33 -64 -72z"/>
<path d="M585 2120 c-15 -16 -15 -24 -5 -55 7 -20 10 -38 8 -40 -2 -3 -21 1
-41 7 -32 10 -40 9 -57 -7 -27 -24 -19 -32 41 -40 36 -5 61 -16 85 -37 33 -29
35 -30 54 -13 19 18 19 18 -9 50 -21 24 -30 48 -35 89 -8 64 -16 73 -41 46z"/>
<path d="M1981 2062 c-65 -61 -69 -96 -17 -148 49 -49 81 -46 148 15 46 42 51
50 39 65 -20 24 -29 21 -82 -29 -26 -25 -52 -45 -57 -45 -5 0 -17 9 -26 19
-21 24 -14 40 43 95 33 32 38 43 30 58 -5 10 -14 18 -18 18 -5 0 -32 -22 -60
-48z"/>
<path d="M402 1901 c-15 -16 -35 -42 -44 -59 l-18 -30 80 -52 c77 -51 81 -52
95 -34 20 26 19 27 -16 48 -42 25 -32 41 25 41 36 0 50 5 58 19 13 23 -4 36
-47 36 -23 0 -34 7 -47 30 -22 38 -52 39 -86 1z m55 -41 c5 -26 -13 -43 -36
-35 -24 7 -27 25 -9 43 16 16 42 11 45 -8z"/>
<path d="M2190 1905 c0 -3 9 -24 20 -45 24 -47 26 -46 -81 -29 -38 7 -72 9
-75 6 -8 -7 76 -157 87 -157 20 0 18 25 -6 66 l-27 45 34 -6 c18 -3 56 -10 83
-15 69 -12 76 -1 41 63 -16 29 -33 58 -39 65 -9 12 -37 17 -37 7z"/>
<path d="M276 1673 c-20 -59 -23 -79 -14 -85 16 -9 23 -2 38 47 11 35 14 37
24 22 58 -96 87 -137 93 -137 8 0 63 137 63 157 0 6 -6 13 -14 16 -9 4 -20
-10 -33 -44 l-18 -49 -45 75 c-24 41 -50 75 -56 75 -7 0 -24 -35 -38 -77z"/>
<path d="M2271 1676 c-32 -43 -66 -66 -98 -66 -11 0 -14 -6 -9 -22 3 -13 6
-26 6 -30 0 -3 17 -2 37 4 34 9 110 0 160 -19 10 -4 10 2 2 26 -8 23 -17 31
-34 31 -50 0 -57 10 -29 42 25 30 29 68 8 75 -5 2 -25 -16 -43 -41z"/>
<path d="M682 1680 c-44 -10 -80 -45 -92 -89 -5 -20 -10 -91 -10 -158 l0 -123
60 0 60 0 0 130 c0 123 1 130 20 130 23 0 27 -28 5 -36 -10 -4 -15 -20 -15
-50 0 -30 5 -46 15 -50 11 -5 15 -22 15 -65 l0 -59 60 0 60 0 0 73 c0 49 -5
80 -15 95 -12 16 -13 27 -5 41 15 29 12 83 -6 109 -29 42 -96 65 -152 52z"/>
<path d="M996 1680 c-15 -5 -37 -17 -48 -27 -41 -37 -48 -66 -48 -208 l0 -135
60 0 60 0 0 131 c0 119 2 130 18 127 22 -4 30 -48 8 -48 -12 0 -16 -11 -16
-50 0 -38 4 -50 15 -50 12 0 15 -13 15 -55 l0 -55 60 0 60 0 0 128 c0 113 -3
133 -22 172 -31 60 -98 89 -162 70z"/>
<path d="M1895 1685 c-5 -2 -22 -6 -38 -9 -45 -10 -104 -71 -122 -127 -15 -44
-15 -57 -4 -96 24 -89 97 -146 184 -146 105 0 188 83 188 186 0 98 -66 175
-163 190 -19 3 -39 4 -45 2z m63 -141 c46 -32 17 -114 -40 -114 -41 0 -68 25
-68 63 0 59 58 86 108 51z"/>
<path d="M1222 1499 l3 -184 96 0 c85 0 99 3 132 25 103 71 104 228 1 307 -33
25 -46 28 -136 31 l-98 4 2 -183z m178 31 c16 -30 12 -68 -10 -90 -33 -33 -40
-24 -40 55 0 72 1 75 20 65 11 -6 24 -19 30 -30z"/>
<path d="M1570 1495 l0 -185 60 0 60 0 0 185 0 185 -60 0 -60 0 0 -185z"/>
<path d="M271 1506 c-33 -19 -50 -54 -51 -105 0 -63 36 -101 96 -101 58 0 94
41 94 106 0 58 -13 82 -55 100 -42 17 -53 17 -84 0z m72 -55 c46 -18 43 -81
-4 -96 -59 -19 -114 50 -69 87 25 20 38 22 73 9z"/>
<path d="M2247 1463 c-46 -4 -48 -6 -45 -31 3 -25 6 -27 41 -24 20 2 37 0 37
-5 0 -5 -16 -24 -35 -43 -34 -33 -44 -63 -26 -74 5 -3 29 12 53 34 l45 39 42
-30 41 -31 0 30 c0 24 -8 35 -35 52 -43 27 -45 40 -5 40 25 0 30 4 30 25 0 27
-9 28 -143 18z"/>
<path d="M349 1247 c-32 -21 -36 -22 -61 -8 -24 14 -28 14 -47 -3 -16 -15 -21
-31 -21 -70 0 -96 -2 -94 100 -81 49 6 92 14 96 17 3 4 3 16 -1 28 -6 18 -13
21 -41 18 -29 -3 -34 -1 -34 18 0 15 10 26 30 34 24 10 30 19 30 41 0 35 -7
36 -51 6z m-51 -81 c4 -19 -13 -36 -35 -36 -14 0 -18 42 -6 54 12 12 38 1 41
-18z"/>
<path d="M2216 1255 c-11 -29 -7 -43 14 -50 15 -5 20 -15 20 -40 0 -29 -4 -36
-25 -41 -22 -5 -46 -47 -34 -58 2 -2 47 6 99 18 92 21 94 22 101 53 6 32 5 34
-60 70 -36 20 -76 42 -87 50 -19 12 -22 12 -28 -2z m124 -106 c0 -4 -13 -9
-30 -11 -31 -5 -34 -1 -24 25 4 12 10 12 30 3 13 -6 24 -14 24 -17z"/>
<path d="M973 1215 c-61 -26 -73 -62 -73 -217 l0 -138 60 0 60 0 0 130 c0 107
3 130 14 130 23 0 31 -22 13 -35 -22 -16 -24 -100 -2 -109 11 -4 15 -21 15
-61 l0 -55 61 0 61 0 -4 74 c-2 51 -9 80 -20 93 -14 16 -15 21 -3 43 20 35 18
60 -5 98 -34 56 -111 76 -177 47z"/>
<path d="M1268 1219 c-30 -17 -36 -41 -48 -175 -5 -71 -12 -141 -15 -156 -4
-28 -4 -28 55 -28 l60 0 1 63 c1 34 4 75 8 91 5 26 9 19 24 -50 23 -95 32
-114 56 -114 29 0 41 23 66 117 l23 88 1 -51 c1 -28 4 -72 7 -98 l7 -46 54 0
55 0 -7 88 c-16 209 -22 246 -45 264 -28 23 -72 23 -99 1 -12 -10 -29 -46 -40
-83 l-18 -65 -14 60 c-7 34 -23 70 -36 83 -23 23 -66 29 -95 11z"/>
<path d="M1665 1218 c-3 -8 -4 -92 -3 -188 l3 -175 55 0 55 0 0 185 0 185 -53
3 c-37 2 -54 -1 -57 -10z"/>
<path d="M483 859 c-9 -9 -6 -20 13 -48 22 -32 22 -37 8 -51 -14 -13 -17 -13
-30 5 -9 11 -19 26 -23 34 -5 8 -16 11 -26 7 -16 -6 -15 -9 5 -43 17 -29 18
-38 8 -44 -20 -13 -22 -12 -42 26 -15 28 -22 33 -37 25 -16 -9 -14 -15 22 -70
l40 -60 57 37 c31 20 67 43 79 51 l23 14 -21 38 c-38 66 -63 93 -76 79z"/>
<path d="M2082 828 c-7 -7 -12 -18 -12 -24 0 -13 138 -104 158 -104 10 0 28
38 20 45 -8 7 -147 95 -150 95 -2 0 -9 -5 -16 -12z"/>
<path d="M2020 735 c-10 -13 -5 -22 31 -55 l44 -41 -55 6 c-30 4 -62 8 -71 11
-9 2 -24 -5 -34 -16 -18 -20 -18 -21 26 -66 24 -25 56 -55 72 -66 26 -18 28
-18 44 -2 16 16 15 19 -27 56 l-44 39 76 -7 c72 -6 77 -5 88 16 11 21 7 27
-52 81 -68 62 -79 67 -98 44z"/>
<path d="M527 637 c-58 -52 -58 -53 -38 -71 20 -18 21 -17 74 28 59 50 68 54
87 31 7 -9 20 -13 27 -11 10 4 13 1 9 -12 -4 -13 1 -22 18 -31 13 -7 30 -24
37 -38 11 -21 11 -29 -2 -51 -20 -36 -62 -41 -101 -12 -16 12 -36 19 -45 16
-36 -14 66 -86 122 -86 41 0 85 50 85 95 0 31 -7 44 -42 77 -24 22 -62 57 -84
79 -25 23 -51 39 -65 39 -14 -1 -48 -22 -82 -53z"/>
<path d="M1857 576 c-22 -17 -21 -22 2 -55 l20 -27 -30 -18 c-28 -16 -36 -35
-22 -49 3 -4 22 3 41 15 28 17 36 18 43 7 13 -21 12 -23 -21 -42 -29 -18 -39
-40 -22 -51 15 -9 123 74 115 88 -28 45 -86 126 -96 134 -8 7 -18 6 -30 -2z"/>
<path d="M850 466 c0 -24 -3 -70 -6 -103 l-6 -60 31 -13 c32 -13 33 -13 102
56 38 38 69 72 69 76 0 4 -12 11 -27 14 -19 5 -30 2 -39 -11 -12 -16 -17 -16
-44 -5 -23 9 -30 19 -30 40 0 19 -7 30 -25 38 -25 11 -25 11 -25 -32z m80 -82
c0 -3 -9 -17 -20 -31 -20 -26 -28 -14 -14 21 6 15 34 23 34 10z"/>
<path d="M1635 453 c-74 -38 -86 -104 -31 -159 19 -19 44 -34 55 -34 35 0 86
26 109 55 31 39 28 78 -9 120 -35 40 -73 45 -124 18z m75 -43 c25 -25 26 -72
1 -94 -27 -25 -60 -12 -77 31 -13 31 -13 38 1 59 19 29 48 31 75 4z"/>
<path d="M1056 351 c-3 -36 -6 -81 -6 -98 0 -31 2 -33 35 -33 32 0 37 4 64 57
l29 57 12 -56 c16 -71 19 -75 55 -79 29 -4 29 -3 47 71 24 104 23 122 -4 118
-17 -2 -24 -13 -33 -53 -12 -53 -16 -50 -35 23 -15 60 -40 56 -79 -10 l-31
-53 0 56 c0 52 -2 57 -24 61 -22 5 -24 1 -30 -61z"/>
<path d="M1471 401 c-9 -6 -12 -20 -9 -40 4 -27 1 -31 -18 -31 -15 0 -26 9
-34 30 -10 24 -19 30 -41 30 -36 0 -37 -14 -4 -63 14 -20 21 -37 16 -37 -14 0
-23 -34 -15 -54 4 -10 18 -22 32 -27 24 -9 110 -3 130 10 7 4 6 35 -4 96 -7
50 -13 91 -14 93 0 5 -26 1 -39 -7z m3 -127 c10 -27 7 -34 -18 -34 -28 0 -40
14 -32 35 7 20 42 19 50 -1z"/>
</g>
</svg>
